<svg version="1.1" viewBox="0.0 0.0 377.9527559055118 377.9527559055118" fill="none" stroke="none" stroke-linecap="square" stroke-miterlimit="10" xmlns:xlink="http://www.w3.org/1999/xlink" xmlns="http://www.w3.org/2000/svg"><clipPath id="p.0"><path d="m0 0l377.95276 0l0 377.95276l-377.95276 0l0 -377.95276z" clip-rule="nonzero"/></clipPath><g clip-path="url(#p.0)"><path fill="#000000" fill-opacity="0.0" d="m0 0l377.95276 0l0 377.95276l-377.95276 0z" fill-rule="evenodd"/><path fill="#cfe2f3" d="m0 62.993385l0 0c0 -34.790283 28.2031 -62.993385 62.993385 -62.993385l251.966 0l0 0c16.706879 0 32.729492 6.636784 44.54303 18.450336c11.813568 11.813551 18.450348 27.836166 18.450348 44.54305l0 251.966c0 34.790283 -28.203094 62.993378 -62.993378 62.993378l-251.966 0c-34.790283 0 -62.993385 -28.203094 -62.993385 -62.993378z" fill-rule="evenodd"/><path fill="#ffffff" d="m56.692913 157.48044l0 0c0 -3.4790192 2.8203087 -6.2993317 6.2993393 -6.2993317l25.196598 0l0 0c1.6706848 0 3.2729492 0.66368103 4.4543076 1.8450317c1.1813507 1.1813507 1.8450317 2.783615 1.8450317 4.4543l0 176.37772c0 3.479004 -2.8203125 6.2993164 -6.2993393 6.2993164l-25.196598 0c-3.4790306 0 -6.2993393 -2.8203125 -6.2993393 -6.2993164z" fill-rule="evenodd"/><path stroke="#ffffff" stroke-width="2.0" stroke-linejoin="round" stroke-linecap="butt" d="m56.692913 157.48044l0 0c0 -3.4790192 2.8203087 -6.2993317 6.2993393 -6.2993317l25.196598 0l0 0c1.6706848 0 3.2729492 0.66368103 4.4543076 1.8450317c1.1813507 1.1813507 1.8450317 2.783615 1.8450317 4.4543l0 176.37772c0 3.479004 -2.8203125 6.2993164 -6.2993393 6.2993164l-25.196598 0c-3.4790306 0 -6.2993393 -2.8203125 -6.2993393 -6.2993164z" fill-rule="evenodd"/><path fill="#ffffff" d="m18.897638 94.48819l0 0c0 -10.436874 8.46076 -18.897636 18.897638 -18.897636l0 0c5.011963 0 9.818653 1.9909897 13.362648 5.5349884c3.543995 3.543991 5.5349884 8.350685 5.5349884 13.362648l0 0c0 10.436874 -8.460762 18.897636 -18.897636 18.897636l0 0c-10.436878 0 -18.897638 -8.460762 -18.897638 -18.897636z" fill-rule="evenodd"/><path fill="#ffffff" d="m204.72473 283.46457l62.991486 0l0 0c4.1767273 0 8.182373 1.6591797 11.135773 4.6125793c2.9533691 2.9533997 4.6125793 6.9590454 4.6125793 11.135773l0 78.73984c0 4.272461E-4 -3.6621094E-4 7.9345703E-4 -7.9345703E-4 7.9345703E-4l-94.4874 -7.9345703E-4l0 0c-4.4250488E-4 0 -7.9345703E-4 -3.6621094E-4 -7.9345703E-4 -7.9345703E-4l7.9345703E-4 -78.739044l0 0c0 -8.697571 7.050766 -15.748352 15.748352 -15.748352z" fill-rule="evenodd"/><path stroke="#ffffff" stroke-width="2.0" stroke-linejoin="round" stroke-linecap="butt" d="m204.72473 283.46457l62.991486 0l0 0c4.1767273 0 8.182373 1.6591797 11.135773 4.6125793c2.9533691 2.9533997 4.6125793 6.9590454 4.6125793 11.135773l0 78.73984c0 4.272461E-4 -3.6621094E-4 7.9345703E-4 -7.9345703E-4 7.9345703E-4l-94.4874 -7.9345703E-4l0 0c-4.4250488E-4 0 -7.9345703E-4 -3.6621094E-4 -7.9345703E-4 -7.9345703E-4l7.9345703E-4 -78.739044l0 0c0 -8.697571 7.050766 -15.748352 15.748352 -15.748352z" fill-rule="evenodd"/><path fill="#000000" fill-opacity="0.0" d="m75.59055 94.48819l160.6614 0.9448776" fill-rule="evenodd"/><path stroke="#ffffff" stroke-width="2.0" stroke-linejoin="round" stroke-linecap="butt" d="m75.59055 94.48819l160.6614 0.9448776" fill-rule="evenodd"/><path fill="#000000" fill-opacity="0.0" d="m236.22047 283.46457l0 -188.97638" fill-rule="evenodd"/><path stroke="#ffffff" stroke-width="2.0" stroke-linejoin="round" stroke-linecap="butt" d="m236.22047 283.46457l0 -188.97638" fill-rule="evenodd"/><path fill="#000000" fill-opacity="0.0" d="m155.92126 94.34908l0 -94.362206" fill-rule="evenodd"/><path stroke="#ffffff" stroke-width="2.0" stroke-linejoin="round" stroke-linecap="butt" d="m155.92126 94.34908l0 -94.362206" fill-rule="evenodd"/><path fill="#000000" fill-opacity="0.0" d="m75.59055 151.1811l0 -56.8189" fill-rule="evenodd"/><path stroke="#ffffff" stroke-width="2.0" stroke-linejoin="round" stroke-linecap="butt" d="m75.59055 151.1811l0 -56.8189" fill-rule="evenodd"/><path fill="#000000" fill-opacity="0.0" d="m94.48819 377.95276l0 -56.81891" fill-rule="evenodd"/><path stroke="#ffffff" stroke-width="2.0" stroke-linejoin="round" stroke-linecap="butt" d="m94.48819 377.95276l0 -56.81891" fill-rule="evenodd"/></g></svg>