<svg version="1.1" viewBox="0.0 0.0 960.0 188.9763779527559" fill="none" stroke="none" stroke-linecap="square" stroke-miterlimit="10" xmlns:xlink="http://www.w3.org/1999/xlink" xmlns="http://www.w3.org/2000/svg"><clipPath id="p.0"><path d="m0 0l960.0 0l0 188.97638l-960.0 0l0 -188.97638z" clip-rule="nonzero"/></clipPath><g clip-path="url(#p.0)"><path fill="#000000" fill-opacity="0.0" d="m0 0l960.0 0l0 188.97638l-960.0 0z" fill-rule="evenodd"/><path fill="#76a5af" d="m0 31.490131l0 0c0 -17.395144 14.10155 -31.496693 31.496693 -31.496693l125.983 0l0 0c8.353439 0 16.364746 3.318392 22.271515 9.225168c5.906784 5.9067755 9.225174 13.918082 9.225174 22.271526l0 125.983c0 17.395142 -14.101547 31.496689 -31.496689 31.496689l-125.983 0c-17.395142 0 -31.496693 -14.101547 -31.496693 -31.496689z" fill-rule="evenodd"/><path fill="#ffffff" d="m28.346457 78.73366l0 0c0 -1.7395172 1.4101543 -3.1496658 3.1496696 -3.1496658l12.598299 0l0 0c0.8353424 0 1.6364746 0.3318329 2.2271538 0.92251587c0.59067535 0.59067535 0.92251587 1.3918076 0.92251587 2.22715l0 88.18886c0 1.739502 -1.4101562 3.1496582 -3.1496696 3.1496582l-12.598299 0c-1.7395153 0 -3.1496696 -1.4101562 -3.1496696 -3.1496582z" fill-rule="evenodd"/><path stroke="#ffffff" stroke-width="2.0" stroke-linejoin="round" stroke-linecap="butt" d="m28.346457 78.73366l0 0c0 -1.7395172 1.4101543 -3.1496658 3.1496696 -3.1496658l12.598299 0l0 0c0.8353424 0 1.6364746 0.3318329 2.2271538 0.92251587c0.59067535 0.59067535 0.92251587 1.3918076 0.92251587 2.22715l0 88.18886c0 1.739502 -1.4101562 3.1496582 -3.1496696 3.1496582l-12.598299 0c-1.7395153 0 -3.1496696 -1.4101562 -3.1496696 -3.1496582z" fill-rule="evenodd"/><path fill="#ffffff" d="m9.448819 47.237534l0 0c0 -5.218441 4.23038 -9.448818 9.448819 -9.448818l0 0c2.5059814 0 4.9093266 0.99549484 6.681324 2.7674942c1.7719975 1.7719955 2.7674942 4.1753387 2.7674942 6.681324l0 0c0 5.218437 -4.230381 9.448818 -9.448818 9.448818l0 0c-5.218439 0 -9.448819 -4.230381 -9.448819 -9.448818z" fill-rule="evenodd"/><path fill="#ffffff" d="m102.362366 141.72572l31.495743 0l0 0c2.0883636 0 4.0911865 0.82958984 5.5678864 2.3062897c1.4766846 1.4766998 2.3062897 3.4795227 2.3062897 5.5678864l0 39.36992c0 2.1362305E-4 -1.8310547E-4 3.9672852E-4 -3.9672852E-4 3.9672852E-4l-47.2437 -3.9672852E-4l0 0c-2.2125244E-4 0 -3.9672852E-4 -1.8310547E-4 -3.9672852E-4 -3.9672852E-4l3.9672852E-4 -39.369522l0 0c0 -4.3487854 3.525383 -7.874176 7.874176 -7.874176z" fill-rule="evenodd"/><path stroke="#ffffff" stroke-width="2.0" stroke-linejoin="round" stroke-linecap="butt" d="m102.362366 141.72572l31.495743 0l0 0c2.0883636 0 4.0911865 0.82958984 5.5678864 2.3062897c1.4766846 1.4766998 2.3062897 3.4795227 2.3062897 5.5678864l0 39.36992c0 2.1362305E-4 -1.8310547E-4 3.9672852E-4 -3.9672852E-4 3.9672852E-4l-47.2437 -3.9672852E-4l0 0c-2.2125244E-4 0 -3.9672852E-4 -1.8310547E-4 -3.9672852E-4 -3.9672852E-4l3.9672852E-4 -39.369522l0 0c0 -4.3487854 3.525383 -7.874176 7.874176 -7.874176z" fill-rule="evenodd"/><path fill="#000000" fill-opacity="0.0" d="m37.795277 47.237534l80.3307 0.4724388" fill-rule="evenodd"/><path stroke="#ffffff" stroke-width="2.0" stroke-linejoin="round" stroke-linecap="butt" d="m37.795277 47.237534l80.3307 0.4724388" fill-rule="evenodd"/><path fill="#000000" fill-opacity="0.0" d="m118.11024 141.72572l0 -94.48819" fill-rule="evenodd"/><path stroke="#ffffff" stroke-width="2.0" stroke-linejoin="round" stroke-linecap="butt" d="m118.11024 141.72572l0 -94.48819" fill-rule="evenodd"/><path fill="#000000" fill-opacity="0.0" d="m77.96063 47.16798l0 -47.181103" fill-rule="evenodd"/><path stroke="#ffffff" stroke-width="2.0" stroke-linejoin="round" stroke-linecap="butt" d="m77.96063 47.16798l0 -47.181103" fill-rule="evenodd"/><path fill="#000000" fill-opacity="0.0" d="m37.795277 75.58399l0 -28.40945" fill-rule="evenodd"/><path stroke="#ffffff" stroke-width="2.0" stroke-linejoin="round" stroke-linecap="butt" d="m37.795277 75.58399l0 -28.40945" fill-rule="evenodd"/><path fill="#000000" fill-opacity="0.0" d="m47.244095 188.96982l0 -28.409454" fill-rule="evenodd"/><path stroke="#ffffff" stroke-width="2.0" stroke-linejoin="round" stroke-linecap="butt" d="m47.244095 188.96982l0 -28.409454" fill-rule="evenodd"/><path fill="#434343" d="m226.77164 47.23287l0 94.46443l70.35132 0l0 -11.147583l-57.875854 0l0 -32.153984l52.152588 0l0 -11.0831375l-52.152588 0l0 -28.932148l55.689453 0l0 -11.147575z" fill-rule="evenodd"/><path fill="#434343" d="m313.84265 47.23287l0 94.46443l58.904785 0l0 -11.147583l-46.42932 0l0 -83.31685z" fill-rule="evenodd"/><path fill="#434343" d="m387.85947 47.23287l0 94.46443l70.35132 0l0 -11.147583l-57.875854 0l0 -32.153984l52.152588 0l0 -11.0831375l-52.152588 0l0 -28.932148l55.689423 0l0 -11.147575z" fill-rule="evenodd"/><path fill="#434343" d="m512.03534 58.380444c5.6589966 0 9.538818 0.2792282 11.639465 0.8376808c3.2582397 0.90211487 5.880493 2.763626 7.8668213 5.584526c2.0006714 2.8065872 3.0009766 6.185936 3.0009766 10.138062c0 5.455658 -1.6933594 9.687012 -5.0802 12.694061c-3.3867798 3.0070572 -9.110107 4.510582 -17.16986 4.510582l-24.372131 0l0 -33.76491zm-36.590393 -11.147575l0 94.46443l12.475464 0l0 -38.404366l24.17926 0c13.332886 0 22.55011 -2.7779465 27.651794 -8.333832c5.1016235 -5.5702057 7.652466 -12.37188 7.652466 -20.405006c0 -4.682411 -0.9574585 -8.978203 -2.8723755 -12.887367c-1.9005737 -3.9091682 -4.4157104 -6.9448624 -7.545288 -9.107075c-3.1295776 -2.1765366 -7.0093994 -3.6514244 -11.639465 -4.4246635c-3.3010864 -0.6014137 -8.081177 -0.9021187 -14.340363 -0.9021187z" fill-rule="evenodd"/><path fill="#434343" d="m563.67346 47.23287l0 94.46443l12.475464 0l0 -44.525864l49.001587 0l0 44.525864l12.475464 0l0 -94.46443l-12.475464 0l0 38.79099l-49.001587 0l0 -38.79099z" fill-rule="evenodd"/><path fill="#434343" d="m690.67883 57.156143c1.4576416 5.111992 3.6868896 11.641594 6.687866 19.588806l9.838928 26.161362l-31.960327 0l10.3533325 -27.707848c2.1864014 -5.9711456 3.8798218 -11.985256 5.0802 -18.04232zm-6.430664 -9.923275l-36.20453 94.46443l13.247131 0l10.3533325 -28.609962l39.41992 0l10.996399 28.609962l14.211731 0l-38.583923 -94.46443z" fill-rule="evenodd"/><path fill="#434343" d="m746.1111 47.23287l0 94.46443l11.960999 0l0 -74.231255l49.51599 74.231255l12.796997 0l0 -94.46443l-11.960999 0l0 74.166824l-49.516052 -74.166824z" fill-rule="evenodd"/><path fill="#434343" d="m834.27527 47.23287l0 11.147575l31.060059 0l0 83.31685l12.475464 0l0 -83.31685l31.18866 0l0 -11.147575z" fill-rule="evenodd"/></g></svg>